<svg xmlns="http://www.w3.org/2000/svg" xmlns:xlink="http://www.w3.org/1999/xlink" width="363.5" height="14" viewBox="0 0 363.5 14"><defs><style>.a,.c{fill:none;}.b{clip-path:url(#a);}.c,.g{stroke-miterlimit:10;}.c{opacity:0.47;}.d,.e,.f,.g,.i{fill:#fff;}.d{opacity:0.58;}.f{font-size:12px;font-family:SegoeUI, Segoe UI;}.g{stroke:#fff;stroke-linecap:round;stroke-linejoin:round;}.h,.i{stroke:none;}</style><clipPath id="a"><rect class="a" width="363.5" height="14"/></clipPath></defs><g class="b"><g transform="translate(290 -0.5)"><g transform="translate(11)"><g transform="translate(36 1)"><g class="c" transform="translate(0 0.5)"><path class="h" d="M0,2.5A2.5,2.5,0,0,1,2.5,0h19A2.5,2.5,0,0,1,24,2.5V9a2.5,2.5,0,0,1-2.5,2.5H2.5A2.5,2.5,0,0,1,0,9Z"/><path class="i" d="M 2.5 1 C 1.67289924621582 1 1 1.672900199890137 1 2.5 L 1 9 C 1 9.827099800109863 1.67289924621582 10.5 2.5 10.5 L 20.14764022827148 10.5 L 21.5 10.5 C 22.32710075378418 10.5 23 9.827099800109863 23 9 L 23 2.5 C 23 1.672900199890137 22.32710075378418 1 21.5 1 L 2.5 1 M 2.5 0 L 21.5 0 C 22.88071060180664 0 24 1.119290351867676 24 2.5 L 24 9 C 24 10.38070964813232 22.88071060180664 11.5 21.5 11.5 L 20.14764022827148 11.5 L 0 11.5 L 2.5 11.5 C 1.119289398193359 11.5 0 10.38070964813232 0 9 L 0 2.5 C 0 1.119290351867676 1.119289398193359 0 2.5 0 Z"/></g><path class="d" d="M0,0A2.251,2.251,0,0,1,1.5,2.122,2.252,2.252,0,0,1,0,4.244Z" transform="translate(25 4.128)"/><rect class="e" width="20" height="7.5" rx="1" transform="translate(2 2.5)"/></g><text class="f" transform="translate(0 0.5)"><tspan x="3.773" y="13">100%</tspan></text></g><path class="e" d="M3,12V7.249L.75,9.5,0,8.75,2.75,6,0,3.25.75,2.5,3,4.75V0L7,3.5,4.25,6,7,8.5,3,12ZM4,7H4V9.75L5.5,8.459,4,7ZM4,2.37V5L5.5,3.6Z" transform="translate(0.5 1)"/></g><text class="f" transform="translate(181.5 11)"><tspan x="-21.905" y="0">9:41 AM</tspan></text><g transform="translate(0 1.5)"><path class="e" d="M14.25,10a.75.75,0,0,1-.75-.75V.75A.75.75,0,0,1,14.25,0h1.5a.75.75,0,0,1,.75.75v8.5a.75.75,0,0,1-.75.75Zm-4.5,0A.75.75,0,0,1,9,9.25V2.75A.75.75,0,0,1,9.75,2h1.5A.75.75,0,0,1,12,2.75v6.5a.75.75,0,0,1-.75.75Zm-4.5,0a.75.75,0,0,1-.75-.75V4.75A.751.751,0,0,1,5.25,4h1.5a.751.751,0,0,1,.75.751v4.5a.75.75,0,0,1-.75.75ZM.75,10A.75.75,0,0,1,0,9.25v-3A.75.75,0,0,1,.75,5.5h1.5A.75.75,0,0,1,3,6.25v3a.75.75,0,0,1-.75.75Z"/><path class="g" d="M4.886,7.377a2.877,2.877,0,0,1,3.246,0L6.509,9ZM6.5,4.62A5.1,5.1,0,0,0,3.276,5.767l-.882-.882a6.364,6.364,0,0,1,8.225,0l-.882.882A5.1,5.1,0,0,0,6.5,4.62ZM0,2.494a9.733,9.733,0,0,1,13.012,0l-.885.885a8.484,8.484,0,0,0-11.241,0Z" transform="translate(20.991 0.5)"/></g></g></svg>