<svg xmlns="http://www.w3.org/2000/svg" width="40" height="40" viewBox="0 0 40 40"><defs><style>.a{fill:#ff4f9a;}.b{fill:#fff;}.c{font-size:16px;font-family:SFProDisplay-Regular, SF Pro Display;}</style></defs><g transform="translate(-39 -569)"><g transform="translate(39 569)"><rect class="a" width="35.476" height="35.476" rx="1" transform="translate(2.262)"/><rect class="a" width="3.393" height="6.787" transform="translate(0 7.557)"/><rect class="a" width="3.393" height="6.787" transform="translate(36.607 7.557)"/><rect class="a" width="6.787" height="6.787" rx="0.5" transform="translate(4.524 33.213)"/><rect class="a" width="6.787" height="6.787" rx="0.5" transform="translate(28.689 33.213)"/><path class="b" d="M0,16.338a2.612,2.612,0,0,1,.034-.418H0V0H30.951V15.92h-.034a2.613,2.613,0,0,1,.034.418c0,3.471-6.928,6.284-15.475,6.284S0,19.81,0,16.338Z" transform="translate(4.524 6.116)"/><ellipse class="b" cx="2.828" cy="2.828" rx="2.828" ry="2.828" transform="translate(4.524 27.444)"/><ellipse class="b" cx="2.828" cy="2.828" rx="2.828" ry="2.828" transform="translate(29.82 27.444)"/><rect class="b" width="15.836" height="2.262" transform="translate(12.082 2.262)"/></g><text class="c" transform="translate(58.753 590.733)"><tspan x="-12.754" y="0">125</tspan></text></g></svg>